<?xml version="1.0" encoding="UTF-8"?>
<svg width="511px" height="507px" viewBox="0 0 511 507" version="1.1" xmlns="http://www.w3.org/2000/svg" xmlns:xlink="http://www.w3.org/1999/xlink">
    <title>command-line</title>
    <g id="command-line" stroke="none" stroke-width="1" fill="none" fill-rule="evenodd">
        <g id="noun-terminal-1406093" transform="translate(2.000000, 0.000000)" fill="#76E5AC" fill-rule="nonzero">
            <path d="M507,87.4137931 C507,64.2283251 497.792804,41.9976447 481.400246,25.5997537 C465.003656,9.20706589 442.772976,0 419.586207,0 L87.4137931,0 C64.2283251,0 41.9976447,9.20719597 25.5997537,25.5997537 C9.20706589,41.9963439 0,64.2270243 0,87.4137931 L0,419.586207 C0,442.771675 9.20719597,465.002355 25.5997537,481.400246 C41.9963439,497.792934 64.2270243,507 87.4137931,507 L419.586207,507 C442.771675,507 465.002355,497.792804 481.400246,481.400246 C497.792934,465.003656 507,442.772976 507,419.586207 L507,87.4137931 Z M477.864671,420.314655 L477.864671,420.309573 C477.864671,435.766985 471.726453,450.588306 460.796867,461.518933 C449.867151,472.448649 435.04492,478.586736 419.587508,478.586736 L87.4150939,478.586736 C71.9576817,478.586736 57.1363608,472.448518 46.2057343,461.518933 C35.2760183,450.589217 29.137931,435.766985 29.137931,420.309573 L29.137931,87.4087109 C29.137931,71.9512986 35.2761484,57.1299778 46.2057343,46.1993513 C57.1353202,35.2687247 71.9576817,29.131548 87.4150939,29.131548 L419.587508,29.131548 C435.04492,29.131548 449.866241,35.2697654 460.796867,46.1993513 C471.727494,57.1289372 477.864671,71.9512986 477.864671,87.4087109 L477.864671,420.314655 Z" id="Shape"></path>
            <path d="M138.22571,171.909839 C132.428115,167.567235 124.308621,168.140613 119.18093,173.259322 C114.054019,178.378031 113.479853,186.480121 117.829285,192.273636 L205.240675,279.545195 L117.829285,366.816754 C114.450238,369.348186 112.336464,373.218971 112.036763,377.424562 C111.736972,381.630153 113.281653,385.759639 116.269385,388.737436 C119.257156,391.720428 123.393259,393.262638 127.605458,392.963287 C131.817787,392.663974 135.689571,390.553543 138.225189,387.180031 L235.834727,289.726639 C241.388424,284.070137 241.388424,275.020123 235.834727,269.362972 L138.22571,171.909839 Z" id="Path"></path>
            <path d="M379.438067,354 L258.567134,354 C250.521598,354 244,360.488941 244,368.5 C244,376.506268 250.521728,383 258.567134,383 L379.438067,383 C387.483603,383 394,376.506009 394,368.5 C394,360.488682 387.483343,354 379.438067,354 Z" id="Path"></path>
        </g>
    </g>
</svg>