<?xml version="1.0" encoding="UTF-8"?>
<svg width="511px" height="507px" viewBox="0 0 511 507" version="1.1" xmlns="http://www.w3.org/2000/svg" xmlns:xlink="http://www.w3.org/1999/xlink">
    <title>laptop-user</title>
    <g id="laptop-user" stroke="none" stroke-width="1" fill="none" fill-rule="evenodd">
        <g id="noun-laptop-user-837450" transform="translate(51.000000, 2.000000)" fill="#76E5AC" fill-rule="nonzero">
            <path d="M203.21694,237.578 C209.77944,237.578 215.11194,232.2421 215.11194,225.683 L191.31894,225.683 C191.322846,232.2416 196.65874,237.578 203.21694,237.578 Z" id="Path"></path>
            <path d="M143.32694,198.338 C143.32694,190.8614 149.40894,184.776 156.88894,184.776 C164.36554,184.776 170.45094,190.858 170.45094,198.338 L179.43534,198.338 C179.43534,185.912 169.32234,175.799 156.89634,175.799 C144.46234,175.799 134.35734,185.912 134.35734,198.338 L143.32694,198.338 Z" id="Path"></path>
            <path d="M233.87694,198.338 L238.36914,198.338 C238.36914,190.8614 244.45114,184.776 251.93114,184.776 C259.41164,184.776 265.49314,190.858 265.49314,198.338 L274.47754,198.338 C274.47754,185.912 264.36454,175.799 251.93854,175.799 C239.51254,175.799 229.39954,185.912 229.39954,198.338 L233.87694,198.338 Z" id="Path"></path>
            <path d="M384.00694,253.148 L294.94494,253.148 C309.03894,236.707 317.62494,215.433 317.62494,192.238 L317.62494,94.07 C317.62494,62.715 302.15194,34.945 278.37894,17.832 C263.00394,6.559 244.04694,0 223.55494,0 L185.16794,0 C133.52294,0 91.19894,42.32 91.19894,94.07 L91.19894,145.406 C91.253628,145.445062 91.31222,145.472406 91.363,145.51147 L91.363,192.23847 C91.363,215.43347 99.9489,236.70347 114.031,253.14847 L24.812,253.14847 C11.132,253.14847 0,264.28147 0,277.96047 L0,453.96047 C0,459.56987 1.9414,464.69447 5.1016,468.86247 C2.0235,471.24917 0,474.94447 0,479.13247 L0,490.96447 C0,498.15587 5.8516,503.99947 13.043,503.99947 L395.783,503.99947 C402.9744,503.99947 408.826,498.14787 408.826,490.96447 L408.826,479.13247 C408.826,474.94497 406.8026,471.25357 403.7244,468.86247 C406.8767,464.70227 408.826,459.57727 408.826,453.96047 L408.826,277.95047 C408.818187,264.26647 397.685,253.14147 384.006,253.14147 L384.00694,253.148 Z M288.99944,175.281 L288.99944,190.336 C288.99944,203.797 278.04994,214.746 264.58894,214.746 L247.43694,214.746 C234.68694,214.746 224.30794,204.375 224.30794,191.617 L224.30794,183.2576 C224.30794,179.0193 227.84704,172.7026 229.42124,172.159592 L285.88224,172.159592 C287.56974,172.155694 288.99944,173.5893 288.99944,175.2807 L288.99944,175.281 Z M196.43694,191.613 L196.43694,189.2107 L212.38994,189.2107 L212.38994,191.613 C212.38994,210.937 228.10894,226.656 247.43294,226.656 L264.58494,226.656 C268.44824,226.656 272.17474,226.03491 275.66694,224.9138 L275.66694,250.8628 C275.66694,251.63624 275.577097,252.3823 275.54975,253.148 L133.43975,253.151906 C133.416312,252.386286 133.32256,251.640206 133.32256,250.866706 L133.32256,224.975706 C136.77176,226.061606 140.43976,226.655406 144.24456,226.655406 L161.39256,226.655406 C180.71256,226.659312 196.43956,210.940406 196.43956,191.612406 L196.43694,191.613 Z M187.43654,163.453 C209.79194,158.1678 229.80794,146.699 245.62794,130.957 C258.49094,118.094 268.49094,102.387 274.61994,84.887 C275.26838,88.762 275.67464,92.6995 275.67464,96.703 L275.67464,160.242 L229.42464,160.242 C220.81914,160.242 215.28364,169.5115 213.26864,177.293 L195.55764,177.293 C194.21784,172.3047 191.42094,166.824 187.43654,163.453 L187.43654,163.453 Z M128.78094,86.457 C128.92156,84.8164 129.02703,82.9726 129.24969,80.9765 C129.62469,79.0156 130.03485,76.8945 130.47239,74.6249 C130.9763,72.3632 131.80049,70.039 132.52319,67.5233 C133.32007,65.035 134.56229,62.5741 135.64819,59.9022 C136.99199,57.371 138.37089,54.6834 140.01539,52.0389 C141.79659,49.492 143.51929,46.7303 145.76539,44.2772 C149.91379,39.0624 155.24589,34.3553 161.22239,30.1602 C167.24189,26.004 174.12439,22.6602 181.46039,20.2579 C188.90179,17.9806 196.56239,16.8868 204.64039,16.6681 C208.19119,16.718881 212.44509,17.01576 216.23839,17.60951 C220.08999,18.24623 223.90639,19.07831 227.59039,20.24231 C234.98099,22.50011 241.80139,26.02751 247.83239,30.13681 C253.88709,34.20321 259.09039,39.19151 263.27039,44.19181 C267.62589,49.39491 270.90709,54.67581 273.39139,59.90681 C275.57109,64.46931 277.07109,68.84431 278.12189,72.89481 C279.47739,78.09791 280.08669,82.75031 280.27809,86.42981 C280.51246,89.71101 280.37184,92.29701 280.281996,94.03921 C280.168716,95.78141 280.110116,96.71111 280.110116,96.71111 C280.110116,96.71111 280.004646,95.78533 279.801526,94.05491 C279.606216,92.32831 279.196056,89.80881 278.532026,86.66431 C278.071086,84.46511 277.352326,81.87131 276.469526,79.13311 C274.852326,74.06671 272.504726,68.32411 268.903126,62.31711 C266.141426,57.72331 262.520326,53.03981 258.419126,48.69611 C254.094926,44.21171 249.157426,40.19611 243.552126,36.66911 C237.974026,33.13001 231.673126,30.44251 225.099126,28.43861 C221.802226,27.44642 218.396026,26.76281 214.958126,26.23941 C211.434726,25.75113 208.282326,25.56363 204.411126,25.52457 C197.653326,25.64957 190.516126,26.50504 183.950126,28.44257 C177.418926,30.56367 171.059126,33.10277 165.493126,36.68087 C160.004826,40.30587 154.802126,44.14967 150.692126,48.67687 C146.395226,53.02847 143.024126,57.77847 140.118126,62.30587 C138.864226,64.68087 137.512626,66.90357 136.473626,69.13787 C135.516596,71.39957 134.450226,73.51677 133.711926,75.59877 C133.012706,77.70817 132.364226,79.68077 131.758826,81.50497 C131.309606,83.36827 130.903356,85.09087 130.532226,86.63387 C129.692386,89.73547 129.579106,92.35267 129.262726,94.05577 C129.016636,95.78627 128.887726,96.70417 128.887726,96.70417 C128.887726,96.70417 128.85257,95.77448 128.786166,94.02837 C128.817416,92.28227 128.376006,89.73927 128.78226,86.45807 L128.78094,86.457 Z M119.82784,175.281 C119.82784,173.5896 121.25754,172.156 122.94894,172.156 L179.23394,172.132562 C180.98004,172.691152 184.51914,179.007562 184.51914,183.249562 L184.51914,191.608962 C184.51914,204.358962 174.14414,214.737962 161.39014,214.737962 L144.24214,214.737962 C130.78114,214.737962 119.82784,203.788962 119.82784,190.327962 L119.82784,175.281 Z M394.58784,489.761 L14.23784,489.761 L14.23784,480.3235 L394.58784,480.3235 L394.58784,489.761 Z M394.58784,453.952 C394.58784,459.7879 389.84564,464.53 384.00984,464.53 L24.80984,464.53 C18.97394,464.53 14.23184,459.7878 14.23184,453.952 L14.23184,277.952 C14.23184,272.1239 18.97404,267.378 24.80984,267.378 L384.00984,267.378 C389.84574,267.378 394.58784,272.1202 394.58784,277.952 L394.58784,453.952 Z" id="Shape"></path>
            <path d="M204.40694,337.638 C189.73894,337.638 177.80494,349.572 177.80494,364.24 C177.80494,378.908 189.73894,390.842 204.40694,390.842 C219.07494,390.842 231.00894,378.908 231.00894,364.24 C231.00894,349.572 219.07494,337.638 204.40694,337.638 Z M204.40694,379.63 C195.91864,379.63 189.00894,372.7238 189.00894,364.232 C189.00894,355.7359 195.91514,348.834 204.40694,348.834 C212.90304,348.834 219.80494,355.7402 219.80494,364.232 C219.80494,372.7281 212.90264,379.63 204.40694,379.63 Z" id="Shape"></path>
        </g>
    </g>
</svg>