<?xml version="1.0" encoding="UTF-8"?>
<svg width="511px" height="507px" viewBox="0 0 511 507" version="1.1" xmlns="http://www.w3.org/2000/svg" xmlns:xlink="http://www.w3.org/1999/xlink">
    <title>no-background</title>
    <g id="no-background" stroke="none" stroke-width="1" fill="none" fill-rule="evenodd">
        <g id="noun-peace-2263970" transform="translate(0.000000, 64.000000)" fill="#76E5AC" fill-rule="nonzero">
            <path d="M500.985605,303.237708 L492.096796,303.237708 L492.096796,32.791459 C492.086061,24.1001847 488.62568,15.763294 482.470635,9.61741239 C476.319346,3.46805282 467.974597,0.0109829605 459.275509,0 L51.7301709,0 C43.0309907,0.0107257761 34.6865164,3.46796129 28.5350442,9.61741239 C22.380091,15.763111 18.9198764,24.1002763 18.9088835,32.791459 L18.9088835,303.237708 L10.0200749,303.237708 C4.48778065,303.237708 0,307.720953 0,313.248677 L0,335.955032 C0,347.370904 4.53743215,358.31817 12.6171595,366.390646 C20.6972534,374.463397 31.6578668,379 43.0841233,379 L467.915877,379 C479.342133,379 490.303021,374.463122 498.38284,366.390646 C506.462934,358.317896 511,347.370904 511,335.955032 L511,313.248677 C511,310.595926 509.944402,308.04678 508.065707,306.169793 C506.187011,304.292805 503.639212,303.238166 500.980383,303.238166 L500.985605,303.237708 Z M38.951873,32.791459 C38.951873,25.7412221 44.6773684,20.0246827 51.7339268,20.0210217 L459.279265,20.0210217 C466.335915,20.0245976 472.061319,25.7413136 472.061319,32.791459 L472.061319,303.237708 L38.9573695,303.237708 L38.951873,32.791459 Z M490.963698,335.948625 C490.963698,342.05506 488.537554,347.9109 484.214759,352.226288 C479.891964,356.545154 474.030706,358.972663 467.918625,358.972663 L43.0868716,358.972663 C36.9748824,358.972663 31.1137157,356.545154 26.7907377,352.226288 C22.467943,347.911083 20.0417987,342.055151 20.0417987,335.948625 L20.0417987,323.253238 L198.127605,323.253238 L198.127605,326.195573 C198.134762,331.268786 200.152965,336.130576 203.742163,339.716513 C207.331362,343.30245 212.198033,345.322399 217.275402,345.325969 L293.724964,345.325969 C298.802791,345.322394 303.669004,343.30245 307.258203,339.716513 C310.847401,336.130576 312.865616,331.268328 312.872761,326.195573 L312.872761,323.253238 L490.958568,323.253238 L490.963698,335.948625 Z" id="Shape"></path>
            <path d="M205.022422,135 C199.50837,135 195.041833,139.470809 195.041833,144.991156 C194.892133,149.05165 191.559485,152.266486 187.499726,152.266486 C183.439968,152.266486 180.107265,149.05165 179.961179,144.991156 C179.961179,139.471266 175.491539,135 169.980589,135 C164.466537,135 160,139.470809 160,144.991156 C160.185341,154.70006 165.46414,163.595093 173.896908,168.397936 C182.329675,173.200779 192.666401,173.200597 201.099443,168.397936 C209.532484,163.595276 214.814769,154.70006 215,144.991156 C215,142.340092 213.948562,139.799555 212.073711,137.926281 C210.202419,136.053008 207.664659,135.000457 205.019867,135.000457 L205.022422,135 Z" id="Path"></path>
            <path d="M341.022422,135 C335.511928,135 331.041833,139.470809 331.041833,144.991156 C330.895691,149.05165 327.563043,152.266486 323.503285,152.266486 C319.443526,152.266486 316.110824,149.05165 315.961179,144.991156 C315.961179,139.471266 311.495098,135 305.980589,135 C300.470096,135 296,139.470809 296,144.991156 C296.185341,154.70006 301.467699,163.595093 309.900557,168.397936 C318.333416,173.200779 328.670051,173.200597 337.103092,168.397936 C345.536134,163.595276 350.814769,154.70006 351,144.991156 C351,142.340092 349.948562,139.799555 348.07727,137.926281 C346.205978,136.053008 343.668218,135.000457 341.019867,135.000457 L341.022422,135 Z" id="Path"></path>
            <path d="M289.067347,174.067621 C284.695169,174.060394 280.826342,176.9292 279.512916,181.149145 C278.834786,182.999025 273.745263,194.727262 255.528616,194.727262 C237.311968,194.727262 232.2442,183.002724 231.544315,181.149145 C230.091735,176.35102 225.380487,173.355787 220.476817,174.118123 C215.576436,174.87686 211.964538,179.165519 212,184.184243 C212,185.279001 212.178715,186.366546 212.528484,187.403496 C212.878253,188.538027 221.651107,215 255.500127,215 C289.349512,215 298.143756,188.534697 298.47177,187.403496 C298.821539,186.366546 299,185.279001 299,184.184243 C299,178.620175 294.56359,174.100549 289.067302,174.067251 L289.067347,174.067621 Z" id="Path"></path>
        </g>
    </g>
</svg>