<?xml version="1.0" encoding="UTF-8"?>
<svg width="511px" height="507px" viewBox="0 0 511 507" version="1.1" xmlns="http://www.w3.org/2000/svg" xmlns:xlink="http://www.w3.org/1999/xlink">
    <title>cloud-storage</title>
    <g id="cloud-storage" stroke="none" stroke-width="1" fill="none" fill-rule="evenodd">
        <g id="noun-cloud-drive-1031511" transform="translate(2.000000, 0.000000)" fill="#76E5AC" fill-rule="nonzero">
            <path d="M73.5937563,506.993964 L433.404232,506.993964 C473.988536,506.993964 507,473.978869 507,433.395048 L507,73.5989159 C507,33.0150951 473.988536,0 433.400208,0 L73.5997921,0 C33.0114643,0 0,33.0150951 0,73.5989159 L0,433.405108 C0,473.984905 33.0114643,507 73.5997921,507 L73.5937563,506.993964 Z M16.348803,73.5928802 C16.348803,42.0313748 42.0238275,16.3526321 73.5897325,16.3526321 L433.400208,16.3526321 C464.962089,16.3526321 490.641137,42.027351 490.641137,73.5928802 L490.641137,354.533031 C477.139191,337.821277 456.509038,327.093886 433.400208,327.093886 L73.5997921,327.093886 C50.4859325,327.093886 29.8638268,337.821277 16.3588625,354.533031 L16.3588625,73.5928802 L16.348803,73.5928802 Z M16.348803,400.68576 C16.348803,369.124255 42.0238275,343.445512 73.5897325,343.445512 L433.400208,343.445512 C464.962089,343.445512 490.641137,369.120231 490.641137,400.68576 L490.641137,433.391025 C490.641137,464.95253 464.966113,490.631273 433.400208,490.631273 L73.5997921,490.631273 C42.0379109,490.631273 16.3588625,464.956554 16.3588625,433.391025 L16.3588625,400.68576 L16.348803,400.68576 Z" id="Shape"></path>
            <path d="M90,458 C112.605733,458 131,439.606741 131,417 C131,394.393259 112.606741,376 90,376 C67.3932587,376 49,394.393259 49,417 C49,439.613802 67.3861976,458 90,458 Z M90,392.401009 C103.562431,392.401009 114.6,403.434543 114.6,417.001009 C114.6,430.571509 103.566466,441.601009 90,441.601009 C76.4294993,441.601009 65.3999989,430.567474 65.3999989,417.001009 C65.3960599,403.434543 76.4294993,392.401009 90,392.401009 Z" id="Shape"></path>
            <path d="M160.067941,262 L161.006522,261.943775 L362.829769,261.939838 L363.787985,261.99496 C391.474213,261.99496 414,239.410666 414,211.652527 C414,183.894388 391.474213,161.310094 363.787985,161.310094 C360.025778,161.310094 356.318564,161.774702 352.725155,162.589696 C349.171055,114.81453 309.357537,77 260.810375,77 C225.054232,77 192.576524,97.9423312 177.617978,129.83108 C172.017898,128.311282 166.229416,127.500178 160.075692,127.500178 C123.08599,127.500178 93,157.672376 93,194.750089 C92.9960731,231.831835 123.077947,262 160.063628,262 L160.067941,262 Z M160.067941,143.886447 C166.90902,143.886447 173.129399,145.083397 179.099144,147.544224 L179.25623,147.587535 L179.397601,147.654469 L180.096629,147.835589 L180.834935,148.028522 L181.718544,148.107269 L182.445067,148.142705 L183.226563,148.056084 L184.027703,147.937961 L184.667827,147.741097 L185.52394,147.441855 L186.065882,147.146554 L186.886656,146.666201 L187.39326,146.248847 L188.068732,145.650372 L188.563554,145.051897 L189.054444,144.414052 L189.470718,143.634457 L189.765254,143.083225 L189.808453,142.941486 L189.883068,142.787934 C200.702603,113.234623 229.209194,93.3748377 260.815268,93.3748377 C302.678888,93.3748377 336.73499,127.519395 336.73499,169.49175 C336.73499,170.704423 336.770334,171.92506 336.609322,172.992084 L336.605394,173.157449 L336.566123,174.118153 L336.562197,174.783567 L336.695717,175.634031 L336.837088,176.374254 L337.096277,177.079038 L337.434013,177.890132 L337.500775,178.055497 L337.814945,178.524036 L338.297984,179.248505 L338.832074,179.843039 L339.38973,180.394271 L340.029854,180.874623 L340.689612,181.307732 L341.412205,181.650277 L342.138728,181.949519 L342.998772,182.162137 L343.528931,182.292073 L343.733137,182.307822 L344.184759,182.343258 L344.718849,182.382631 L344.911282,182.347195 C345.751691,182.331446 346.588199,182.18183 347.416806,181.89047 L347.797741,181.732976 L348.567455,181.410118 C353.150426,178.945359 358.275278,177.697206 363.80046,177.697206 C382.796476,177.697206 397.671578,192.615983 397.671578,211.656299 C397.671578,230.067649 382.976433,245.10839 364.726384,245.604305 L363.885975,245.560994 L160.092249,245.560994 L159.20864,245.612179 C131.627973,245.155453 109.334421,222.519874 109.334421,194.761735 C109.338349,166.700201 132.096464,143.887101 160.069217,143.887101 L160.067941,143.886447 Z" id="Shape"></path>
        </g>
    </g>
</svg>