<?xml version="1.0" encoding="UTF-8"?>
<svg width="192px" height="192px" viewBox="0 0 192 192" version="1.1" xmlns="http://www.w3.org/2000/svg" xmlns:xlink="http://www.w3.org/1999/xlink">
    <title>favicon</title>
    <g id="favicon" stroke="none" stroke-width="1" fill="none" fill-rule="evenodd">
        <g id="Group" transform="translate(14.000000, 0.000000)" fill="#76E5AC" fill-rule="nonzero">
            <g id="logo">
                <path d="M164,81.8820634 C164.005512,62.5600503 157.164944,43.8556292 144.682615,29.0832824 C132.20307,14.3109355 114.889555,4.42162645 95.8062973,1.16840493 C76.7230394,-2.0843892 57.1045768,1.5050959 40.4183222,11.3048933 C23.7320677,21.1023115 11.0598482,36.4787161 4.64024648,54.7101485 C-1.77935521,72.9415809 -1.53130568,92.8534052 5.34270618,110.917439 C12.216718,128.981474 25.2708739,144.038041 42.1969001,153.418033 C40.109031,162.107774 41.8428872,171.273354 46.9635757,178.60539 C52.0842713,185.937426 60.098212,190.731422 68.9904593,191.783537 C77.8798522,192.832589 86.7970757,190.036115 93.4899886,184.101033 C100.18283,178.165881 104.012826,169.654222 104.012826,160.719439 C121.253553,155.900083 136.442661,145.590926 147.27235,131.357814 C158.102038,117.127552 163.975017,99.753768 164,81.881351 L164,81.8820634 Z M94.3648127,160.70163 C94.3648127,166.447587 92.0790606,171.960042 88.0092929,176.022473 C83.9367421,180.084975 78.4177115,182.369496 72.66105,182.369496 C66.9020336,182.369496 61.3825035,180.085046 57.3128071,176.022473 C53.2402563,171.959971 50.9544328,166.448015 50.9544328,160.70163 C50.9544328,154.955246 53.240185,149.443219 57.3128071,145.380788 C61.3825748,141.315507 66.9022477,139.033765 72.66105,139.033765 C73.940546,139.033765 75.167021,138.527339 76.070161,137.62299 C76.9760842,136.721463 77.4834582,135.497106 77.4834582,134.219965 L77.4834582,118.328545 C77.4834582,113.67616 81.2633591,109.903078 85.9239927,109.903078 C90.5875522,109.903078 94.3648127,113.676231 94.3648127,118.328545 L94.3648127,160.70163 Z M104.012769,150.667718 L104.012769,118.329257 C104.012769,111.879302 100.564624,105.919004 94.9699508,102.691426 C89.3725662,99.4664844 82.4761329,99.4664844 76.88146,102.691426 C71.2840754,105.919146 67.8357874,111.879088 67.8357874,118.329257 L67.8357874,129.773587 C58.7230357,131.206586 50.7035289,136.562969 45.9009589,144.423413 C26.5971967,133.309605 13.5046631,113.93203 10.4133209,91.9003046 C7.32476177,69.8678671 14.583493,47.6466616 30.0874448,31.6661992 C45.5941082,15.6885861 67.6131422,7.73610856 89.7713294,10.1152984 C111.929517,12.4971951 131.748502,24.9403578 143.495175,43.8477936 C155.238993,62.75238 157.597461,86.0093166 149.88138,106.877803 C142.16801,127.749851 125.245552,143.904835 104.012912,150.664156 L104.012769,150.667718 Z" id="Shape"></path>
                <path d="M106.119335,57.8052323 C104.839839,57.8052323 103.613364,58.3144359 102.70744,59.2160064 C101.8043,60.1203122 101.296926,61.3446689 101.296926,62.6218095 L101.296926,77.0657711 C101.296926,79.7259048 103.454443,81.8795702 106.119335,81.8795702 C108.784226,81.8795702 110.941743,79.7259048 110.941743,77.0657711 L110.941743,62.6218095 C110.941743,61.3445977 110.434412,60.1203122 109.531229,59.2160064 C108.625306,58.3144786 107.398759,57.8052323 106.119335,57.8052323 L106.119335,57.8052323 Z" id="Path"></path>
                <path d="M57.8795532,57.8052323 C56.6000572,57.8052323 55.3735822,58.3144359 54.467659,59.2160064 C53.564519,60.1203122 53.057145,61.3446689 53.057145,62.6218095 L53.057145,77.0657711 C53.057145,79.7259048 55.2146621,81.8795702 57.8795532,81.8795702 C60.5444443,81.8795702 62.7019614,79.7259048 62.7019614,77.0657711 L62.7019614,62.6218095 C62.7019614,61.3445977 62.1946302,60.1203122 61.2914473,59.2160064 C60.3855242,58.3144786 59.1589778,57.8052323 57.8795532,57.8052323 L57.8795532,57.8052323 Z" id="Path"></path>
            </g>
        </g>
    </g>
</svg>