<?xml version="1.0" encoding="UTF-8"?>
<svg width="511px" height="507px" viewBox="0 0 511 507" version="1.1" xmlns="http://www.w3.org/2000/svg" xmlns:xlink="http://www.w3.org/1999/xlink">
    <title>lock</title>
    <g id="lock" stroke="none" stroke-width="1" fill="none" fill-rule="evenodd">
        <g id="noun-locked-4830944" transform="translate(33.000000, 0.000000)" fill="#76E5AC" fill-rule="nonzero">
            <path d="M407.551345,204.857746 L384.49797,204.857746 L384.49797,99.8706332 C384.464928,73.3933812 373.921196,48.008715 355.180072,29.2877244 C336.438948,10.5641988 311.029822,0.0329550275 284.524446,0 L161.37405,0 C134.897433,0.0709673841 109.5306,10.6220814 90.8241574,29.340537 C72.1189834,48.059415 61.6018431,73.4199987 61.5756211,99.8685207 L61.5756211,204.855633 L38.4478092,204.855633 C28.2529459,204.862234 18.4772117,208.910665 11.2691198,216.113155 C4.0610279,223.313829 0.00676697006,233.079079 0,243.263873 L0,468.59176 C0.00660836919,478.776131 4.06085873,488.541805 11.2691198,495.742478 C18.4772117,502.944842 28.2525229,506.99324 38.4478092,507 L407.552191,507 C417.747054,506.993398 427.522788,502.944968 434.73088,495.742478 C441.938972,488.541805 445.993233,478.776554 446,468.59176 L446,243.263873 C445.993392,233.079502 441.939141,223.313829 434.73088,216.113155 C427.522788,208.910792 417.747477,204.862393 407.552191,204.855633 L407.551345,204.857746 Z M76.8960413,99.8706332 C76.9290831,77.4713546 85.8504344,55.9981967 101.705445,40.1628835 C117.558764,24.3241903 139.052776,15.4119678 161.474708,15.3807028 L284.625105,15.3807028 C307.045768,15.4120599 328.538511,24.3241903 344.394368,40.1628835 C360.249378,56.0015767 369.170783,77.4734671 369.203772,99.8706332 L369.203772,204.857746 L322.972678,204.857746 L322.972678,110.128942 C322.946245,97.234231 317.803136,84.8760957 308.670687,75.7627631 C299.539507,66.6494305 287.162295,61.5249238 274.2543,61.5118263 L171.743162,61.5118263 C158.856737,61.5563874 146.510823,66.6959056 137.405865,75.8058582 C128.299638,84.9158108 123.174927,97.256201 123.148282,110.128942 L123.148282,204.857746 L76.8918119,204.857746 L76.8960413,99.8706332 Z M307.604889,110.131054 L307.604889,204.859858 L138.420487,204.858208 L138.420487,110.129404 C138.427096,101.301259 141.939438,92.8347746 148.186071,86.5897969 C154.434099,80.3431292 162.906345,76.8291937 171.744854,76.8160962 L274.255992,76.8160962 C283.099576,76.8226978 291.578166,80.3347214 297.829578,86.5796569 C304.082681,92.8263246 307.598545,101.296189 307.604889,110.128981 L307.604889,110.131054 Z M430.753594,399.45507 L128.075482,399.45507 L128.075482,312.479148 L430.529438,312.479148 L430.753594,399.45507 Z M430.753594,297.02831 L120.492246,297.02831 C118.446971,297.02831 116.485904,297.838666 115.040183,299.28273 C113.594589,300.728484 112.781791,302.685843 112.781791,304.729182 L112.781791,407.155942 C112.788399,409.194168 113.604528,411.146585 115.048472,412.585917 C116.494066,414.025037 118.451793,414.833745 120.492077,414.833745 L430.630773,414.833745 L430.630773,468.596915 L430.630773,468.595265 C430.624165,474.708422 428.190646,480.568925 423.863803,484.889413 C419.537171,489.211592 413.670208,491.642659 407.552868,491.649419 L38.4484859,491.649419 C32.330722,491.642817 26.4641819,489.211803 22.1375504,484.889413 C17.8109189,480.568502 15.3773473,474.708 15.3705804,468.595265 L15.3705804,243.267377 C15.3837971,237.159289 17.8206465,231.305547 22.1460091,226.989706 C26.4726406,222.672175 32.3345284,220.244488 38.4489088,220.23815 L407.55329,220.23815 C413.669363,220.23815 419.535903,222.664232 423.862534,226.981678 C428.189166,231.300899 430.624429,237.158022 430.631196,243.267799 L430.753594,297.02831 Z M385.436041,348.256478 C388.181824,348.256478 390.717661,349.718709 392.09051,352.093626 C393.463401,354.47019 393.463401,357.396428 392.09051,359.771302 C390.717619,362.146219 388.181654,363.610098 385.436041,363.610098 C382.690258,363.631553 380.142579,362.189103 378.749852,359.824115 C377.358774,357.460732 377.335639,354.53441 378.688725,352.148128 C380.04178,349.761677 382.567848,348.277941 385.313588,348.256478 L385.436041,348.256478 Z M226.501061,348.256478 C229.246844,348.256478 231.782681,349.718709 233.15553,352.093626 C234.528422,354.47019 234.528422,357.396428 233.15553,359.771302 C231.782639,362.146219 229.246675,363.610098 226.501061,363.610098 C223.755278,363.631553 221.207599,362.189103 219.814872,359.824115 C218.423794,357.460732 218.39901,354.53441 219.753745,352.148128 C221.106801,349.761677 223.632868,348.277941 226.376917,348.256478 L226.501061,348.256478 Z M173.596043,348.256478 C176.341826,348.256478 178.877663,349.718709 180.250513,352.093626 C181.623404,354.47019 181.623404,357.396428 180.250513,359.771302 C178.877621,362.146219 176.341657,363.610098 173.596043,363.610098 C170.850261,363.631553 168.302581,362.189103 166.909854,359.824115 C165.518776,357.460732 165.495642,354.53441 166.848727,352.148128 C168.201783,349.761677 170.72785,348.277941 173.471899,348.256478 L173.596043,348.256478 Z M279.503354,348.256435 C282.247487,348.256435 284.784974,349.718709 286.157823,352.093626 C287.530715,354.47019 287.530715,357.396428 286.157823,359.771302 C284.784932,362.146219 282.247318,363.610238 279.503354,363.610238 C276.757571,363.626602 274.211584,362.179216 272.82224,359.814186 C271.434504,357.447508 271.416317,354.521524 272.77433,352.13651 C274.130684,349.753354 276.658401,348.272955 279.404269,348.256435 L279.503354,348.256435 Z M332.505647,348.256478 L332.503995,348.256478 C335.249777,348.256478 337.787307,349.718709 339.158464,352.093626 C340.531355,354.47019 340.531355,357.396428 339.158464,359.771302 C337.787222,362.146219 335.249608,363.610098 332.503995,363.610098 C329.758212,363.610098 327.222375,362.146219 325.849525,359.771302 C324.476634,357.396386 324.476634,354.47019 325.849525,352.093626 C327.222417,349.718709 329.758381,348.256478 332.503995,348.256478 L332.505647,348.256478 Z" id="Shape"></path>
        </g>
    </g>
</svg>