<?xml version="1.0" encoding="UTF-8"?>
<svg width="511px" height="507px" viewBox="0 0 511 507" version="1.1" xmlns="http://www.w3.org/2000/svg" xmlns:xlink="http://www.w3.org/1999/xlink">
    <title>settings</title>
    <g id="settings" stroke="none" stroke-width="1" fill="none" fill-rule="evenodd">
        <g id="noun-settings-4837367" transform="translate(2.000000, 0.000000)" fill="#76E5AC" fill-rule="nonzero">
            <path d="M489.537072,322.229973 C454.182206,375.453527 439.435812,393.035047 433.296859,398.391923 C422.466935,407.849252 365.291335,444.079738 345.995213,454.234977 C345.501945,454.498096 345.037937,454.808722 344.610371,455.166855 C325.011183,471.563987 295.366862,474.276104 256.511774,463.210309 C173.225749,436.543803 150.027187,437.91062 139.84081,441.240192 C139.511965,441.338862 139.190425,441.463111 138.883534,441.612946 C129.178882,446.283327 119.897961,450.624773 111.224107,454.608471 L85.2156391,357.462457 C88.8548602,355.558455 92.3114,353.325613 95.5413889,350.785821 C136.358921,315.641491 180.987225,309.465085 231.977104,331.896422 C232.072102,331.947583 232.1671,331.987783 232.276718,332.031635 L232.273063,332.035289 C273.959572,349.017131 317.535564,360.931176 362.058169,367.523895 C370.440088,373.670645 371.927449,377.405022 371.762821,378.267586 C371.762821,378.318747 370.111299,383.679846 347.815013,388.763359 C340.156523,390.51384 315.737748,385.945807 296.10208,382.280379 L296.10208,382.276723 C281.724229,379.232584 267.185491,377.007039 252.551343,375.614681 C252.364995,375.603718 252.178647,375.603718 251.988651,375.614681 C242.203556,375.209042 232.49142,377.496698 223.91204,382.22555 C222.04856,383.303567 220.700292,385.097925 220.18508,387.188285 C219.669887,389.278646 220.027963,391.489597 221.17893,393.313143 C222.329925,395.13304 224.171424,396.408456 226.279695,396.843293 C228.391614,397.274519 230.583977,396.832329 232.359718,395.611754 C238.428797,392.582209 245.169858,391.153366 251.944875,391.453018 C265.785813,392.863618 279.542567,395.001504 293.157141,397.859285 C309.606877,401.528362 326.319457,403.911077 343.138671,404.981798 C345.882726,405.029306 348.623133,404.773491 351.308726,404.214368 C365.456471,400.987519 384.584223,395.103842 387.277206,381.304973 C388.121244,375.947535 386.692588,370.480827 383.334732,366.223204 C391.610766,363.412949 399.138115,358.746217 405.335061,352.577483 C405.426408,352.48247 405.514104,352.398412 405.605444,352.314363 C422.27032,334.930241 441.215671,319.8887 461.929842,307.602312 C466.076979,305.826291 483.658908,307.079731 489.527534,313.284942 C490.481162,314.293543 492.450621,316.383903 489.527534,322.223703 L489.537072,322.229973 Z M51.4760951,489.372758 L100.631678,476.202288 L66.7715621,349.858209 L17.6234627,363.036163 L51.473289,489.370887 L51.4760951,489.372758 Z M454.385185,293.696138 C454.330377,293.725373 454.271919,293.761917 454.198837,293.798466 L454.198837,293.794811 C432.22844,306.794078 412.121337,322.712216 394.425664,341.116072 C384.764975,350.127899 376.507368,353.28926 365.969286,352.039385 L365.97294,352.039385 C322.115396,345.731817 279.200723,334.070553 238.180212,317.315111 C181.896036,292.59639 130.432851,299.806563 85.1974804,338.7632 C83.860156,339.804731 82.4461297,340.747564 80.9663457,341.577104 L80.0309575,338.079791 C78.894648,333.855286 74.5537922,331.348332 70.3263055,332.481172 L5.87619148,349.781096 C3.84462196,350.321957 2.11275081,351.652167 1.06043915,353.472064 C0.00812748367,355.291961 -0.273237271,357.455387 0.2712054,359.487277 L38.2161609,501.127363 C39.1478917,504.591744 42.286596,507 45.8710034,507 C46.5615817,506.996346 47.2521975,506.908639 47.9208129,506.733223 L112.37841,489.454816 C116.609545,488.329273 119.13079,483.991476 118.012627,479.756119 L115.433014,470.178106 C124.732081,465.931616 134.74036,461.232047 145.284991,456.203075 C152.826558,454.017758 176.685971,454.288128 251.87247,478.370591 C251.963817,478.370591 252.04055,478.421752 252.120937,478.43637 C267.349992,483.033686 283.138408,485.496764 299.043748,485.759836 C318.957226,486.501688 338.494679,480.172163 354.191427,467.892978 C375.149734,456.69181 432.234602,420.433258 443.747359,410.350056 C453.886967,401.488008 473.285046,375.424642 502.994844,330.650845 L502.994844,330.647191 C503.151961,330.416965 503.294458,330.179423 503.422345,329.930926 C506.202973,325.596777 507.419632,320.439918 506.871588,315.320667 C506.323507,310.197113 504.047184,305.417088 500.415259,301.766628 C488.868828,290.415775 463.565643,288.724326 454.409128,293.726822 L454.385185,293.696138 Z M440.708875,178.774948 C438.286407,188.312733 434.490041,197.449174 429.443996,205.897995 C427.573219,209.011551 428.06645,212.998523 430.642415,215.560207 L452.46315,237.376896 L425.285447,264.569173 L403.464712,242.741257 L403.468366,242.741257 C400.906993,240.168534 396.920649,239.675226 393.811419,241.546298 C385.363741,246.593044 376.225186,250.38636 366.688904,252.812952 C363.170254,253.700982 360.707565,256.862044 360.703917,260.490893 L360.703917,291.338307 L322.280042,291.338307 L322.280042,260.490893 C322.294658,256.862044 319.828296,253.693666 316.309647,252.812952 C306.769623,250.393751 297.630881,246.596786 289.183391,241.546298 C286.070325,239.686172 282.08763,240.175925 279.51896,242.741257 L257.705709,264.569173 L230.517717,237.398414 L252.316938,215.581724 C254.881959,213.019947 255.382485,209.040272 253.526394,205.919513 C248.480443,197.466762 244.684077,188.326766 242.261515,178.785239 C241.380931,175.266035 238.213062,172.802957 234.584785,172.813903 L203.782453,172.813903 L203.782453,134.376488 L234.621265,134.376488 L234.617611,134.376488 C238.245888,134.376488 241.410119,131.91341 242.301638,128.394206 C244.720458,118.852679 248.516824,109.712496 253.566517,101.263674 C255.422701,98.1464698 254.922082,94.166795 252.353412,91.6052051 L230.543902,69.7810313 L257.721605,42.5990453 L279.534856,64.4232191 L279.538511,64.4232191 C282.10718,66.9849961 286.086228,67.478304 289.202941,65.6218272 C297.650619,60.571432 306.789174,56.7744674 316.329197,54.3551724 C319.844199,53.4598368 322.303241,50.2951351 322.299593,46.6661926 L322.299593,15.8487154 L360.734692,15.8487154 L360.734692,46.6886455 C360.734692,50.321143 363.197382,53.4858727 366.716031,54.3776252 C376.256055,56.8004752 385.394797,60.5937913 393.842287,65.6442801 C396.951705,67.5153512 400.938048,67.0183947 403.495493,64.4456719 L425.316228,42.6214981 L452.49393,69.8034841 L430.673196,91.6276579 C428.09723,94.1857864 427.600259,98.1764069 429.474776,101.289869 C434.520728,109.738878 438.313446,118.878874 440.739656,128.416659 C441.616582,131.94316 444.784461,134.413629 448.416386,134.398941 L479.25894,134.398941 L479.25894,172.836355 L448.387389,172.836355 C444.755464,172.825392 441.587585,175.295785 440.710659,178.818638 L440.708875,178.774948 Z M479.910992,188.6383 C483.922966,188.627336 487.766756,187.030301 490.60622,184.194506 C493.448958,181.362359 495.052962,177.521518 495.07485,173.508818 L495.07485,133.690553 C495.067542,129.670651 493.470847,125.818864 490.628108,122.975865 C487.789018,120.136327 483.934284,118.535719 479.915108,118.532071 L454.378076,118.532071 C452.240527,111.639793 449.470936,104.963063 446.098394,98.5864522 L464.156063,80.525938 C466.991411,77.6754547 468.580916,73.8163704 468.580916,69.8000227 C468.580916,65.7801199 466.991505,61.9210356 464.156063,59.0703652 L435.992461,30.9313263 L435.996115,30.9349805 C433.14608,28.0991851 429.291252,26.5094295 425.271889,26.5094295 C421.256268,26.5094295 417.40144,28.0990915 414.551406,30.9349805 L396.504962,48.976784 C390.125335,45.6037105 383.442267,42.8336832 376.543779,40.7030945 L376.543779,15.1582957 C376.543779,11.1420415 374.947072,7.29399663 372.11163,4.45109114 C369.27254,1.60790499 365.425101,0.00729717745 361.409854,0 L321.594122,0 C317.578501,0.00730840388 313.727321,1.60799854 310.884863,4.44744255 C308.045773,7.2906287 306.449066,11.1423222 306.445418,15.1583893 L306.445418,40.7031881 C299.550578,42.8410739 292.867323,45.6111012 286.480493,48.9768775 L268.419083,30.9163633 C265.576345,28.0878651 261.728907,26.4981095 257.717308,26.4981095 C253.705334,26.4981095 249.857896,28.0877715 247.015532,30.9163633 L218.85193,59.0844038 L218.855585,59.0844038 C216.012847,61.92759 214.419787,65.7830256 214.419787,69.8028349 C214.419787,73.8226441 216.012847,77.6781733 218.855585,80.5250081 L236.894545,98.5855223 C233.532947,104.969804 230.763356,111.654019 228.622159,118.549851 L203.092611,118.549851 C199.076989,118.553506 195.222161,120.150459 192.37961,122.993645 C189.536872,125.833183 187.940165,129.688525 187.936517,133.708334 L187.936517,173.508824 C187.951132,177.525078 189.551558,181.373123 192.390554,184.216029 C195.229644,187.055566 199.077083,188.659823 203.09233,188.670768 L228.621879,188.670768 C230.763076,195.563046 233.532666,202.243518 236.894264,208.631355 L218.869335,226.698418 C216.033986,229.541604 214.440833,233.39704 214.440833,237.413107 C214.440833,241.43301 216.033893,245.284797 218.869335,248.131538 L247.032937,276.299579 L247.032937,276.295924 C249.879323,279.128071 253.734151,280.714178 257.745937,280.714178 C261.761558,280.714178 265.616386,279.128165 268.462679,276.295924 L286.526895,258.268154 L286.526895,258.271808 C292.913819,261.633936 299.593332,264.403963 306.488078,266.545498 L306.488078,292.075328 C306.491731,296.095231 308.088433,299.947018 310.931172,302.790017 C313.770262,305.629554 317.621348,307.230162 321.64043,307.233811 L361.445873,307.233811 L361.442219,307.233811 C365.461489,307.233811 369.316317,305.633203 372.158961,302.793665 C374.998051,299.950479 376.598407,296.095044 376.602055,292.075234 L376.602055,266.490207 C383.475007,264.348673 390.139928,261.578646 396.504309,258.212869 L414.568524,276.24064 C417.411263,279.080177 421.269739,280.677137 425.289008,280.677137 C429.308277,280.677137 433.166753,279.080177 436.009492,276.24064 L464.173093,248.072599 L464.173093,248.076254 C467.004794,245.233067 468.594299,241.385023 468.594299,237.372791 C468.594299,233.360185 467.004887,229.512141 464.173093,226.669329 L446.115425,208.602266 C449.484319,202.217984 452.257558,195.537511 454.395107,188.645421 L479.910992,188.6383 Z M341.502544,79.8888383 C361.042802,79.9112911 379.776756,87.6837206 393.595245,101.501581 C407.413734,115.322248 415.185464,134.058219 415.207388,153.602492 C415.207388,173.150508 407.438989,191.897612 393.6205,205.718373 C379.802011,219.539133 361.057768,227.301178 341.512833,227.301178 C321.967898,227.301178 303.223655,219.53904 289.405166,205.718373 C275.582748,191.897706 267.818278,173.150508 267.818278,153.602492 C267.818278,134.054477 275.579193,115.307279 289.397682,101.48287 C303.21243,87.6618291 321.956673,79.8924925 341.501608,79.8888383 L341.501608,79.8888383 Z M341.501608,95.7255827 C326.15563,95.7255827 311.441039,101.824809 300.589602,112.678424 C289.74097,123.532508 283.646916,138.252225 283.650656,153.600621 C283.668927,168.938727 289.770902,183.643475 300.615792,194.490075 C311.460683,205.336674 326.166855,211.43543 341.502544,211.454141 C356.847586,211.45686 371.565919,205.361279 382.413615,194.50785 C393.265988,183.653766 399.363784,168.937792 399.363784,153.589395 C399.363784,138.240998 393.265521,123.520346 382.413615,112.67094 C371.564983,101.816857 356.847586,95.7218423 341.501608,95.7255827 Z" id="Shape"></path>
        </g>
    </g>
</svg>